<svg width="48" height="48" viewBox="0 0 48 48" fill="none" xmlns="http://www.w3.org/2000/svg">
<g clip-path="url(#clip0_2003_27)">
<path d="M24.001 48C37.2558 48 48.001 37.2548 48.001 24C48.001 10.7452 37.2558 0 24.001 0C10.7462 0 0.00101423 10.7452 0.00101423 24C0.00101423 37.2548 10.7462 48 24.001 48Z" fill="#EBC154"/>
<path d="M31.2 12.3H16.8C14.3 12.3 12.3 14.3 12.3 16.8001V31.2C12.3 33.7001 14.3 35.7 16.8 35.7H31.2C33.7 35.7 35.7 33.7001 35.7 31.2V16.8C35.7 14.3 33.7 12.3 31.2 12.3ZM32.5 15H33V19H29V15H32.5ZM20.7 21.6001C21.4 20.6 22.7 19.9 24 19.9C25.3 19.9 26.6 20.6 27.3 21.6001C27.8 22.3 28.1 23.1 28.1 24C28.1 26.3 26.2 28.1 24 28.1C21.8 28.1 19.9 26.3 19.9 24C19.9 23.1 20.2 22.3 20.7 21.6001ZM33.4 31.2C33.4 32.4001 32.4 33.4 31.2 33.4H16.8C15.6 33.4 14.6 32.4001 14.6 31.2V21.6001H18.1C17.8 22.3 17.6 23.2001 17.6 24C17.6 27.5 20.5 30.4 24 30.4C27.5 30.4 30.4 27.5 30.4 24C30.4 23.2001 30.2 22.3 29.9 21.6001H33.4L33.4 31.2Z" fill="white"/>
</g>
<defs>
<clipPath id="clip0_2003_27">
<rect width="48" height="48" fill="white"/>
</clipPath>
</defs>
</svg>
